<svg width="44" height="42" viewBox="0 0 44 42" fill="none" xmlns="http://www.w3.org/2000/svg">
<g filter="url(#filter0_d_13_888)">
<rect x="4" width="36" height="33.6" rx="8.8" fill="#2CB742"/>
<g clip-path="url(#clip0_13_888)">
<g filter="url(#filter1_f_13_888)">
<path d="M9.27173 29.8366L11.0586 23.3168C9.95992 21.409 9.37433 19.2418 9.38037 17.0263C9.38037 10.0838 15.0309 4.43935 21.9734 4.43935C25.3419 4.43935 28.5053 5.74938 30.8778 8.12788C33.2563 10.5064 34.5664 13.6697 34.5603 17.0323C34.5603 23.9747 28.9097 29.6193 21.9673 29.6193H21.9613C19.8544 29.6193 17.7837 29.0881 15.9425 28.0859L9.27173 29.8366ZM16.2564 25.8039L16.6367 26.0334C18.2425 26.9872 20.0838 27.4882 21.9613 27.4942H21.9673C27.7326 27.4942 32.4292 22.8036 32.4292 17.0323C32.4292 14.2372 31.3426 11.6112 29.3685 9.63102C27.3945 7.65093 24.7624 6.56433 21.9673 6.56433C16.196 6.56433 11.4993 11.255 11.4993 17.0262C11.4993 19.0004 12.0486 20.9261 13.0991 22.5923L13.3466 22.9907L12.2902 26.8483L16.2564 25.8039Z" fill="black" fill-opacity="0.24"/>
</g>
<path d="M9.84253 29.1636L11.5476 22.9452C10.4962 21.1213 9.94313 19.0528 9.94388 16.9476C9.94388 10.3297 15.3336 4.94609 21.9452 4.94609C25.1588 4.94609 28.1697 6.1981 30.4351 8.46359C32.7006 10.7292 33.9468 13.746 33.9468 16.9535C33.9468 23.5712 28.5571 28.9549 21.9453 28.9549H21.9394C19.9302 28.9549 17.9567 28.4481 16.2039 27.4942L9.84253 29.1637V29.1636Z" fill="url(#paint0_linear_13_888)"/>
<path d="M9.40698 29.5988L11.1717 23.1599C10.0866 21.276 9.50823 19.1356 9.51427 16.9476C9.51427 10.0913 15.0947 4.51685 21.951 4.51685C25.2777 4.51685 28.4017 5.81052 30.7449 8.15955C33.0938 10.5086 34.3876 13.6327 34.3816 16.9535C34.3816 23.8098 28.8012 29.3842 21.9449 29.3842H21.939C19.8623 29.3834 17.8189 28.8628 15.9949 27.8698L9.40698 29.5989V29.5988ZM16.3049 25.6162L16.6805 25.8428C18.2665 26.7848 20.0848 27.2797 21.939 27.2856H21.945C27.6386 27.2856 32.2771 22.6532 32.2771 16.9535C32.2771 14.1931 31.2039 11.5997 29.2543 9.64415C27.3048 7.68864 24.7053 6.61547 21.945 6.61547C16.2453 6.61547 11.607 11.2479 11.607 16.9476C11.607 18.8971 12.1494 20.799 13.1869 22.4444L13.4313 22.8379L12.3879 26.6476L16.3049 25.6162Z" fill="white"/>
<path d="M18.8395 11.7428C18.6069 11.2241 18.3624 11.2121 18.1419 11.2061C17.9631 11.2002 17.7544 11.2002 17.5457 11.2002C17.337 11.2002 17.0031 11.2777 16.717 11.5877C16.4307 11.8978 15.6318 12.649 15.6318 14.1813C15.6318 15.7074 16.7468 17.186 16.9018 17.3946C17.0568 17.6034 19.054 20.8407 22.2079 22.0867C24.8312 23.1242 25.3678 22.9154 25.9341 22.8618C26.5065 22.8081 27.7705 22.1106 28.0328 21.3832C28.2891 20.6559 28.2891 20.0358 28.2116 19.9047C28.1341 19.7734 27.9255 19.696 27.6154 19.5409C27.3054 19.386 25.7791 18.6348 25.493 18.5275C25.2068 18.4202 24.9982 18.3725 24.7955 18.6825C24.5867 18.9924 23.9906 19.69 23.8117 19.8987C23.6328 20.1074 23.448 20.1312 23.1379 19.9762C22.828 19.8212 21.8264 19.4932 20.64 18.4321C19.7159 17.6093 19.0899 16.5898 18.9109 16.2798C18.7321 15.9698 18.8931 15.8027 19.0481 15.6478C19.1852 15.5107 19.3581 15.2841 19.5132 15.1053C19.6682 14.9264 19.7218 14.7953 19.8231 14.5866C19.9245 14.3779 19.8768 14.1991 19.7993 14.0441C19.7218 13.889 19.1137 12.3568 18.8395 11.7428Z" fill="white"/>
</g>
</g>
<defs>
<filter id="filter0_d_13_888" x="0" y="0" width="44" height="41.6" filterUnits="userSpaceOnUse" color-interpolation-filters="sRGB">
<feFlood flood-opacity="0" result="BackgroundImageFix"/>
<feColorMatrix in="SourceAlpha" type="matrix" values="0 0 0 0 0 0 0 0 0 0 0 0 0 0 0 0 0 0 127 0" result="hardAlpha"/>
<feOffset dy="4"/>
<feGaussianBlur stdDeviation="2"/>
<feComposite in2="hardAlpha" operator="out"/>
<feColorMatrix type="matrix" values="0 0 0 0 0 0 0 0 0 0 0 0 0 0 0 0 0 0 0.25 0"/>
<feBlend mode="normal" in2="BackgroundImageFix" result="effect1_dropShadow_13_888"/>
<feBlend mode="normal" in="SourceGraphic" in2="effect1_dropShadow_13_888" result="shape"/>
</filter>
<filter id="filter1_f_13_888" x="8.64677" y="3.81439" width="26.5385" height="26.6472" filterUnits="userSpaceOnUse" color-interpolation-filters="sRGB">
<feFlood flood-opacity="0" result="BackgroundImageFix"/>
<feBlend mode="normal" in="SourceGraphic" in2="BackgroundImageFix" result="shape"/>
<feGaussianBlur stdDeviation="0.312481" result="effect1_foregroundBlur_13_888"/>
</filter>
<linearGradient id="paint0_linear_13_888" x1="21.8942" y1="29.162" x2="21.8942" y2="4.94464" gradientUnits="userSpaceOnUse">
<stop stop-color="#20B038"/>
<stop offset="1" stop-color="#60D66A"/>
</linearGradient>
<clipPath id="clip0_13_888">
<rect width="26.6651" height="26.7692" fill="white" transform="translate(8.61548 3.69231)"/>
</clipPath>
</defs>
</svg>
