<svg width="28" height="28" viewBox="0 0 28 28" fill="none" xmlns="http://www.w3.org/2000/svg">
<g clip-path="url(#clip0_6_749)">
<g filter="url(#filter0_f_6_749)">
<path d="M1.27173 26.8366L3.0586 20.3168C1.95992 18.409 1.37433 16.2418 1.38037 14.0263C1.38037 7.08381 7.03086 1.43935 13.9734 1.43935C17.3419 1.43935 20.5053 2.74938 22.8778 5.12788C25.2563 7.50638 26.5664 10.6697 26.5603 14.0323C26.5603 20.9747 20.9097 26.6193 13.9673 26.6193H13.9613C11.8544 26.6193 9.78372 26.0881 7.94247 25.0859L1.27173 26.8366ZM8.25641 22.8039L8.6367 23.0334C10.2425 23.9872 12.0838 24.4882 13.9613 24.4942H13.9673C19.7326 24.4942 24.4292 19.8036 24.4292 14.0323C24.4292 11.2372 23.3426 8.61121 21.3685 6.63102C19.3945 4.65093 16.7624 3.56433 13.9673 3.56433C8.196 3.56433 3.4993 8.25499 3.4993 14.0262C3.4993 16.0004 4.04865 17.9261 5.0991 19.5923L5.34659 19.9907L4.29019 23.8483L8.25641 22.8039Z" fill="black" fill-opacity="0.24"/>
</g>
<path d="M1.84253 26.1636L3.54764 19.9452C2.49622 18.1213 1.94313 16.0528 1.94388 13.9476C1.94388 7.32973 7.33355 1.94609 13.9452 1.94609C17.1588 1.94609 20.1697 3.1981 22.4351 5.46359C24.7006 7.72918 25.9468 10.746 25.9468 13.9535C25.9468 20.5712 20.5571 25.9549 13.9453 25.9549H13.9394C11.9302 25.9549 9.95673 25.4481 8.20392 24.4942L1.84253 26.1637V26.1636Z" fill="url(#paint0_linear_6_749)"/>
<path d="M1.40698 26.5988L3.17167 20.1599C2.08663 18.276 1.50823 16.1356 1.51427 13.9476C1.51427 7.09131 7.09466 1.51685 13.951 1.51685C17.2777 1.51685 20.4017 2.81052 22.7449 5.15955C25.0938 7.50857 26.3876 10.6327 26.3816 13.9535C26.3816 20.8098 20.8012 26.3842 13.9449 26.3842H13.939C11.8623 26.3834 9.81886 25.8628 7.99492 24.8698L1.40698 26.5989V26.5988ZM8.3049 22.6162L8.68051 22.8428C10.2665 23.7848 12.0848 24.2797 13.939 24.2856H13.945C19.6386 24.2856 24.2771 19.6532 24.2771 13.9535C24.2771 11.1931 23.2039 8.59965 21.2543 6.64415C19.3048 4.68864 16.7053 3.61547 13.945 3.61547C8.24532 3.61547 3.60695 8.2479 3.60695 13.9476C3.60695 15.8971 4.14942 17.799 5.18686 19.4444L5.43132 19.8379L4.38795 23.6476L8.3049 22.6162Z" fill="white"/>
<path d="M10.8395 8.74277C10.6069 8.22405 10.3624 8.21207 10.1419 8.20614C9.96305 8.2002 9.75442 8.2002 9.54568 8.2002C9.33705 8.2002 9.00311 8.2777 8.71698 8.58768C8.43075 8.89776 7.63184 9.64897 7.63184 11.1813C7.63184 12.7074 8.74677 14.186 8.90176 14.3946C9.05675 14.6034 11.054 17.8407 14.2079 19.0867C16.8312 20.1242 17.3678 19.9154 17.9341 19.8618C18.5065 19.8081 19.7705 19.1106 20.0328 18.3832C20.2891 17.6559 20.2891 17.0358 20.2116 16.9047C20.1341 16.7734 19.9255 16.696 19.6154 16.5409C19.3054 16.386 17.7791 15.6348 17.493 15.5275C17.2068 15.4202 16.9982 15.3725 16.7955 15.6825C16.5867 15.9924 15.9906 16.69 15.8117 16.8987C15.6328 17.1074 15.448 17.1312 15.1379 16.9762C14.828 16.8212 13.8264 16.4932 12.64 15.4321C11.7159 14.6093 11.0899 13.5898 10.9109 13.2798C10.7321 12.9698 10.8931 12.8027 11.0481 12.6478C11.1852 12.5107 11.3581 12.2841 11.5132 12.1053C11.6682 11.9264 11.7218 11.7953 11.8231 11.5866C11.9245 11.3779 11.8768 11.1991 11.7993 11.0441C11.7218 10.889 11.1137 9.3568 10.8395 8.74277Z" fill="white"/>
</g>
<defs>
<filter id="filter0_f_6_749" x="0.646766" y="0.81439" width="26.5385" height="26.6472" filterUnits="userSpaceOnUse" color-interpolation-filters="sRGB">
<feFlood flood-opacity="0" result="BackgroundImageFix"/>
<feBlend mode="normal" in="SourceGraphic" in2="BackgroundImageFix" result="shape"/>
<feGaussianBlur stdDeviation="0.312481" result="effect1_foregroundBlur_6_749"/>
</filter>
<linearGradient id="paint0_linear_6_749" x1="13.8942" y1="26.162" x2="13.8942" y2="1.94464" gradientUnits="userSpaceOnUse">
<stop stop-color="#20B038"/>
<stop offset="1" stop-color="#60D66A"/>
</linearGradient>
<clipPath id="clip0_6_749">
<rect width="26.6651" height="26.7692" fill="white" transform="translate(0.615479 0.692307)"/>
</clipPath>
</defs>
</svg>
