<svg width="127" height="40" viewBox="0 0 127 40" fill="none" xmlns="http://www.w3.org/2000/svg">
<path d="M99.3859 36.9475C99.4783 38.3335 100.631 39.2357 102.294 39.2357C104.098 39.2357 105.229 38.3389 105.229 36.904C105.229 35.779 104.571 35.1539 102.946 34.7463L102.125 34.5289C101.06 34.2517 100.625 33.8984 100.625 33.306C100.625 32.5396 101.332 32.0124 102.348 32.0124C103.37 32.0124 104.049 32.5287 104.136 33.3712H105.115C105.071 32.0559 103.941 31.1319 102.381 31.1319C100.75 31.1319 99.6087 32.045 99.6087 33.3494C99.6087 34.4147 100.25 35.0506 101.696 35.4202L102.701 35.6811C103.756 35.9529 104.218 36.3605 104.218 37.0236C104.218 37.7954 103.446 38.3552 102.386 38.3552C101.266 38.3552 100.462 37.7954 100.37 36.9475H99.3859ZM106.242 39.1053H107.187V35.8116C107.187 34.8332 107.769 34.1919 108.709 34.1919C109.595 34.1919 110.046 34.73 110.046 35.6268V39.1053H110.992V35.4528C110.992 34.1919 110.242 33.3549 109.003 33.3549C108.144 33.3549 107.524 33.7245 107.209 34.3549H107.187V31.2624H106.242V39.1053ZM114.027 38.3987C113.347 38.3987 112.896 38.0454 112.896 37.5073C112.896 36.9747 113.331 36.6377 114.092 36.5888L115.603 36.4964V36.9584C115.603 37.7736 114.918 38.3987 114.027 38.3987ZM113.815 39.2031C114.576 39.2031 115.293 38.7791 115.63 38.1324H115.652V39.1053H116.549V35.1974C116.549 34.0723 115.712 33.3549 114.386 33.3549C113.049 33.3549 112.212 34.1049 112.146 35.0833H113.059C113.179 34.5289 113.636 34.1865 114.364 34.1865C115.146 34.1865 115.603 34.5995 115.603 35.2898V35.7626L113.983 35.855C112.679 35.9311 111.934 36.5399 111.934 37.5073C111.934 38.5237 112.69 39.2031 113.815 39.2031ZM117.719 39.1053H118.665V35.5833C118.665 34.7843 119.143 34.2571 119.877 34.2571C120.105 34.2571 120.306 34.2843 120.383 34.3115V33.3929C120.306 33.3821 120.165 33.3549 120.002 33.3549C119.339 33.3549 118.817 33.7516 118.632 34.3767H118.611V33.4527H117.719V39.1053ZM123.119 34.1756C124.01 34.1756 124.602 34.8495 124.624 35.7953H121.553C121.613 34.855 122.233 34.1756 123.119 34.1756ZM124.602 37.4856C124.445 38.0182 123.917 38.3824 123.2 38.3824C122.184 38.3824 121.548 37.6704 121.548 36.5888V36.5344H125.602V36.1757C125.602 34.4636 124.662 33.3549 123.135 33.3549C121.575 33.3549 120.575 34.5452 120.575 36.3007C120.575 38.078 121.559 39.2031 123.178 39.2031C124.412 39.2031 125.369 38.4748 125.532 37.4856H124.602Z" fill="white" fill-opacity="0.83"/>
<path d="M104 12C104 13.654 105.346 15 107 15C107.794 15 108.512 14.685 109.049 14.18L115.04 17.604C115.022 17.734 115 17.864 115 18C115 19.654 116.346 21 118 21C119.654 21 121 19.654 121 18C121 16.346 119.654 15 118 15C117.206 15 116.488 15.315 115.951 15.82L109.96 12.397C109.978 12.266 110 12.136 110 12C110 11.864 109.978 11.734 109.96 11.603L115.951 8.18C116.488 8.685 117.206 9 118 9C119.654 9 121 7.654 121 6C121 4.346 119.654 3 118 3C116.346 3 115 4.346 115 6C115 6.136 115.022 6.266 115.04 6.397L109.049 9.82C108.496 9.29468 107.763 9.00123 107 9C105.346 9 104 10.346 104 12Z" fill="white"/>
<path d="M2.73924 32.0267H4.57088C5.58182 32.0267 6.19055 32.5865 6.19055 33.5268C6.19055 34.4888 5.61986 35.0324 4.61436 35.0324H2.73924V32.0267ZM2.73924 35.8965H4.61436L6.29382 39H7.44064L5.6253 35.7444C6.60906 35.4346 7.20149 34.5867 7.20149 33.4942C7.20149 32.0811 6.21229 31.1571 4.70133 31.1571H1.76092V39H2.73924V35.8965ZM10.5244 34.0703C11.4158 34.0703 12.0082 34.7443 12.03 35.69H8.95911C9.01889 34.7497 9.6385 34.0703 10.5244 34.0703ZM12.0082 37.3803C11.8506 37.913 11.3234 38.2771 10.606 38.2771C9.58958 38.2771 8.95367 37.5651 8.95367 36.4835V36.4292H13.0083V36.0705C13.0083 34.3584 12.068 33.2496 10.5407 33.2496C8.98085 33.2496 7.98078 34.4399 7.98078 36.1955C7.98078 37.9728 8.96454 39.0978 10.5842 39.0978C11.818 39.0978 12.7746 38.3695 12.9376 37.3803H12.0082ZM13.9343 39H14.88V35.4563C14.88 34.6736 15.4235 34.0866 16.1736 34.0866C16.8747 34.0866 17.3313 34.5323 17.3313 35.2117V39H18.277V35.4074C18.277 34.641 18.8042 34.0866 19.5543 34.0866C20.2989 34.0866 20.7282 34.5432 20.7282 35.315V39H21.674V35.0976C21.674 33.9779 20.9511 33.2496 19.8314 33.2496C19.0379 33.2496 18.3748 33.6518 18.0596 34.3258H18.0378C17.7933 33.641 17.2226 33.2496 16.4508 33.2496C15.6899 33.2496 15.1137 33.6518 14.8474 34.2497H14.8257V33.3475H13.9343V39ZM22.8989 39H23.8446V33.3475H22.8989V39ZM23.3718 32.3963C23.6979 32.3963 23.9642 32.13 23.9642 31.8093C23.9642 31.4832 23.6979 31.2223 23.3718 31.2223C23.0511 31.2223 22.7848 31.4832 22.7848 31.8093C22.7848 32.13 23.0511 32.3963 23.3718 32.3963ZM25.0914 39H26.0371V35.6737C26.0371 34.7171 26.6186 34.0866 27.51 34.0866C28.3796 34.0866 28.809 34.5867 28.809 35.4998V39H29.7547V35.3313C29.7547 34.0486 29.0373 33.2496 27.7981 33.2496C26.923 33.2496 26.3197 33.641 26.0045 34.2497H25.9827V33.3475H25.0914V39ZM33.0722 39.0978C33.8875 39.0978 34.5343 38.6956 34.8984 38.0434H34.9147V39H35.8169V31.1571H34.8712V34.266H34.8495C34.5125 33.6464 33.8603 33.2496 33.0505 33.2496C31.6265 33.2496 30.6536 34.4019 30.6536 36.1737C30.6536 37.9456 31.6319 39.0978 33.0722 39.0978ZM33.2516 34.0812C34.2245 34.0812 34.8767 34.9128 34.8767 36.1737C34.8767 37.4401 34.2245 38.2663 33.2516 38.2663C32.2515 38.2663 31.621 37.4564 31.621 36.1737C31.621 34.8965 32.2515 34.0812 33.2516 34.0812ZM47.1914 39V31.1571H46.0554L43.3487 37.701H43.3053L40.5986 31.1571H39.4626V39H40.3757V32.9561H40.4138L42.9139 38.9456H43.7401L46.2402 32.9561H46.2783V39H47.1914ZM50.8024 34.0703C51.6937 34.0703 52.2862 34.7443 52.3079 35.69H49.2371C49.2968 34.7497 49.9165 34.0703 50.8024 34.0703ZM52.2862 37.3803C52.1286 37.913 51.6013 38.2771 50.8839 38.2771C49.8675 38.2771 49.2316 37.5651 49.2316 36.4835V36.4292H53.2862V36.0705C53.2862 34.3584 52.346 33.2496 50.8187 33.2496C49.2588 33.2496 48.2587 34.4399 48.2587 36.1955C48.2587 37.9728 49.2425 39.0978 50.8622 39.0978C52.0959 39.0978 53.0525 38.3695 53.2156 37.3803H52.2862Z" fill="white" fill-opacity="0.83"/>
<g clip-path="url(#clip0_6_460)">
<path d="M27 24C27.7956 24 28.5587 23.6839 29.1213 23.1213C29.6839 22.5587 30 21.7956 30 21H24C24 21.7956 24.3161 22.5587 24.8787 23.1213C25.4413 23.6839 26.2044 24 27 24ZM28.4925 1.64848C28.5134 1.43991 28.4904 1.22927 28.4249 1.03014C28.3595 0.831011 28.253 0.647816 28.1124 0.492368C27.9717 0.336921 27.8001 0.212673 27.6085 0.127638C27.4169 0.0426029 27.2096 -0.00133133 27 -0.00133133C26.7904 -0.00133133 26.5831 0.0426029 26.3915 0.127638C26.1999 0.212673 26.0283 0.336921 25.8876 0.492368C25.747 0.647816 25.6405 0.831011 25.5751 1.03014C25.5096 1.22927 25.4866 1.43991 25.5075 1.64848C23.8121 1.99333 22.2879 2.91352 21.1931 4.25323C20.0984 5.59294 19.5002 7.26984 19.5 8.99998C19.5 10.647 18.75 18 16.5 19.5H37.5C35.25 18 34.5 10.647 34.5 8.99998C34.5 5.36998 31.92 2.33998 28.4925 1.64848Z" fill="white"/>
</g>
<defs>
<clipPath id="clip0_6_460">
<rect width="24" height="24" fill="white" transform="translate(15)"/>
</clipPath>
</defs>
</svg>
