<svg width="29" height="12" viewBox="0 0 29 12" fill="none" xmlns="http://www.w3.org/2000/svg">
<path d="M4.0807 11.2563C6.76869 11.2563 8.36537 9.1543 8.36537 5.59473C8.36537 4.25439 8.10902 3.12646 7.6183 2.25488C6.90785 0.899902 5.68471 0.16748 4.1393 0.16748C1.83949 0.16748 0.213515 1.71289 0.213515 3.88086C0.213515 5.91699 1.67836 7.39648 3.69252 7.39648C4.93031 7.39648 5.93373 6.81787 6.43178 5.81445H6.45375C6.45375 5.81445 6.48305 5.81445 6.49037 5.81445C6.50502 5.81445 6.55629 5.81445 6.55629 5.81445C6.55629 8.23145 5.64076 9.67432 4.09535 9.67432C3.18715 9.67432 2.48402 9.17627 2.24232 8.37793H0.36C0.674941 10.1138 2.14711 11.2563 4.0807 11.2563ZM4.14662 5.89502C2.9308 5.89502 2.06654 5.03076 2.06654 3.82227C2.06654 2.64307 2.97475 1.74219 4.15394 1.74219C5.33314 1.74219 6.24135 2.65771 6.24135 3.85156C6.24135 5.03076 5.35512 5.89502 4.14662 5.89502ZM11.5165 11.1538C12.2123 11.1538 12.6884 10.6558 12.6884 9.99658C12.6884 9.33008 12.2123 8.83936 11.5165 8.83936C10.828 8.83936 10.3446 9.33008 10.3446 9.99658C10.3446 10.6558 10.828 11.1538 11.5165 11.1538ZM11.5165 5.66064C12.2123 5.66064 12.6884 5.16992 12.6884 4.51074C12.6884 3.84424 12.2123 3.35352 11.5165 3.35352C10.828 3.35352 10.3446 3.84424 10.3446 4.51074C10.3446 5.16992 10.828 5.66064 11.5165 5.66064ZM19.6041 11H21.4132V9.02979H22.8414V7.43311H21.4132V0.431152H18.7472C16.8795 3.24365 15.3927 5.59473 14.4405 7.34521V9.02979H19.6041V11ZM16.191 7.36719C17.4215 5.19922 18.5201 3.46338 19.5309 1.96924H19.6334V7.47705H16.191V7.36719ZM26.93 11H28.8197V0.431152H26.9374L24.1761 2.36475V4.18115L26.8055 2.33545H26.93V11Z" fill="white"/>
</svg>
